<?xml version="1.0" encoding="utf-8"?>
<!-- Generator: Adobe Illustrator 16.0.0, SVG Export Plug-In . SVG Version: 6.00 Build 0)  -->
<!DOCTYPE svg PUBLIC "-//W3C//DTD SVG 1.1//EN" "http://www.w3.org/Graphics/SVG/1.1/DTD/svg11.dtd">
<svg version="1.1" id="Layer_1" xmlns="http://www.w3.org/2000/svg" xmlns:xlink="http://www.w3.org/1999/xlink" x="0px" y="0px"
	 width="283.46px" height="354.33px" viewBox="0 0 283.46 354.33" enable-background="new 0 0 283.46 354.33" xml:space="preserve">
<path fill="#FFFFFF" d="M20.075,70.512C13.27,60.16,3.774,51.734,0.882,36.309c-2.865-15.28,0-35.304,27.655-35.304
	c24.466,0,24.466,22.365,24.466,34.753l-8.151,0c0,0,2.592-26.481-17.91-26.406C6.479,9.427,8.659,36.394,16.489,48.8
	c11.008,17.442,14.997,21.712,14.997,21.712H20.075z"/>
<path fill="#FFFFFF" d="M33.763,79.222c7.877,11.68,16.378,18.711,19.333,34.125c2.928,15.268,0.146,35.304-27.509,35.417
	C1.121,148.864,1.03,126.5,0.979,114.111l8.15-0.034c0,0-2.483,26.492,18.019,26.333c20.463-0.159,18.357-25.866,10.292-39.491
	c-10.161-17.163-15.086-21.65-15.086-21.65L33.763,79.222z"/>
<path fill="#FFFFFF" d="M62.457,1.004l-0.163,43.721c0,0,0.163,25.787,26.244,25.787c26.407,0,26.256-25.542,26.256-25.542
	l0.151-43.966h-8.802l-0.153,43.724c0,0-0.091,17.601-17.289,17.602c-17.768,0.001-17.13-17.605-17.13-17.605l-0.148-43.72H62.457z"
	/>
<path fill="#FFFFFF" d="M176.89,79.248l-0.156,45.677c0,0,0.156,24.809,26.236,24.809c26.407,0,25.755-24.564,25.755-24.564
	l0.652-45.921h-8.803l-0.326,45.677c0,0,0.083,16.625-17.115,16.626c-17.767,0.001-17.128-16.87-17.128-16.87l-0.15-45.434H176.89z"
	/>
<rect x="84.3" y="79.222" fill="#FFFFFF" width="8.477" height="70.645"/>
<rect x="177.214" fill="#FFFFFF" width="8.478" height="70.645"/>
<rect x="220.248" fill="#FFFFFF" width="8.477" height="70.645"/>
<path fill="#FFFFFF" d="M123.749,1.004v69.508c0,0,8.102,0.132,13.089,0.132c30.843,0,30.654-25.675,30.654-25.675l-0.22-43.965
	h-9.048L157.98,44.48c0,0-0.244,16.872-23.718,17.104c-1.361,0.013-2.2,0.012-2.2,0.012l0.244-60.592H123.749z"/>
<path fill="#FFFFFF" d="M123.749,150.157V79.581c0,0,8.102-0.134,13.089-0.134c30.843,0,30.654,26.069,30.654,26.069l-0.22,44.641
	h-9.048l-0.244-44.144c0,0-0.244-17.131-23.718-17.368c-1.361-0.013-2.2-0.011-2.2-0.011l0.244,61.523H123.749z"/>
<path fill="#FFFFFF" d="M238.181,150.157V79.581c0,0,8.102-0.134,13.089-0.134c30.844,0,30.653,26.069,30.653,26.069l-0.22,44.641
	h-9.047l-0.244-44.144c0,0-0.244-17.131-23.718-17.368c-1.362-0.013-2.2-0.011-2.2-0.011l0.244,61.523H238.181z"/>
<path fill="#FFFFFF" d="M251.27,0.225c-4.987,0-13.089,0.134-13.089,0.134v70.576c0,0,9.901-0.29,13.203-0.29
	c30.539,0,30.449-25.917,30.449-25.917l0.09-18.433C281.923,26.294,282.113,0.225,251.27,0.225z M249.917,61.843
	c-0.804-0.004-3.215,0-3.215,0l-0.208-52.431c0,0,0.838-0.002,2.2,0.012c23.474,0.237,24.696,17.367,24.696,17.367l-0.295,17.686
	C273.096,44.476,273.391,61.956,249.917,61.843z"/>
<g>
	<path fill="#FFFFFF" d="M1.741,215.713c2.847,1.752,7.009,3.213,11.389,3.213c6.498,0,10.294-3.432,10.294-8.395
		c0-4.6-2.628-7.229-9.272-9.785c-8.031-2.846-12.995-7.008-12.995-13.943c0-7.666,6.352-13.361,15.916-13.361
		c5.038,0,8.688,1.168,10.878,2.409l-1.752,5.184c-1.606-0.877-4.892-2.338-9.345-2.338c-6.716,0-9.271,4.016-9.271,7.375
		c0,4.6,2.993,6.863,9.783,9.492c8.323,3.211,12.558,7.227,12.558,14.455c0,7.592-5.622,14.162-17.23,14.162
		c-4.746,0-9.929-1.387-12.557-3.139L1.741,215.713z"/>
	<path fill="#FFFFFF" d="M47.953,179.648H32.987v-5.404h36.431v5.404h-15.04v43.803h-6.425V179.648z"/>
	<path fill="#FFFFFF" d="M74.892,174.902c3.212-0.657,7.812-1.022,12.192-1.022c6.79,0,11.17,1.242,14.236,4.015
		c2.482,2.191,3.87,5.548,3.87,9.345c0,6.498-4.088,10.805-9.272,12.557v0.219c3.796,1.314,6.06,4.818,7.228,9.93
		c1.606,6.863,2.774,11.609,3.796,13.506h-6.571c-0.803-1.387-1.898-5.621-3.286-11.754c-1.46-6.789-4.088-9.344-9.856-9.564h-5.986
		v21.318h-6.352V174.902z M81.244,197.316h6.497c6.79,0,11.098-3.725,11.098-9.346c0-6.352-4.6-9.127-11.316-9.199
		c-3.066,0-5.256,0.291-6.278,0.584V197.316z"/>
	<path fill="#FFFFFF" d="M122.49,207.975l-5.111,15.477h-6.571l16.719-49.207h7.666l16.792,49.207h-6.79l-5.257-15.477H122.49z
		 M138.625,203.01l-4.818-14.164c-1.095-3.211-1.825-6.133-2.555-8.979h-0.146c-0.73,2.92-1.533,5.912-2.482,8.906l-4.818,14.236
		H138.625z"/>
	<path fill="#FFFFFF" d="M159.211,223.451v-49.207h6.936l15.771,24.896c3.649,5.768,6.497,10.951,8.833,15.988l0.146-0.072
		c-0.584-6.572-0.73-12.559-0.73-20.223v-20.589h5.986v49.207h-6.425l-15.623-24.967c-3.432-5.477-6.717-11.098-9.198-16.428
		l-0.22,0.074c0.365,6.205,0.511,12.119,0.511,20.295v21.025H159.211z"/>
	<path fill="#FFFFFF" d="M244.7,221.262c-2.848,1.023-8.469,2.701-15.112,2.701c-7.447,0-13.58-1.898-18.398-6.498
		c-4.234-4.088-6.862-10.66-6.862-18.324c0.073-14.674,10.148-25.407,26.647-25.407c5.695,0,10.148,1.241,12.266,2.263l-1.533,5.183
		c-2.629-1.168-5.913-2.117-10.878-2.117c-11.974,0-19.784,7.447-19.784,19.785c0,12.484,7.519,19.859,18.98,19.859
		c4.162,0,7.009-0.586,8.47-1.314v-14.676h-10.003v-5.109H244.7V221.262z"/>
	<path fill="#FFFFFF" d="M279.889,200.381h-19.128v17.74h21.318v5.33h-27.67v-49.207h26.574v5.33h-20.223v15.551h19.128V200.381z"/>
</g>
<polygon fill="#FFFFFF" points="0,246.676 0,323.123 66.093,323.123 66.093,309.665 14.044,309.661 14.092,246.676 "/>
<path fill="#FFFFFF" d="M152.898,255.984c-5.722,5.406-8.637,13.389-8.637,13.389l7.151,12.405c0,0,6.02-11.913,8.239-15.336
	c5.196-8.011,13.159-7.797,16.267-7.81c22.487-0.083,22.32,26.054,22.32,26.054s0.883,26.433-23.072,26.925
	c-6.882,0.141-14.252-6.546-17.894-12.668c-5.048-8.487-4.065-6.625-6.381-11.62c-4.14-8.935-14.606-27.092-21.996-33.729
	c-2.046-1.837-7.939-6.918-23.03-6.981c-35.147-0.151-34.772,38.554-34.772,38.554s-0.181,38.224,37.77,38.08
	c10.105-0.038,18.224-4.522,23.225-11.729c2.657-3.827,7.503-13.393,7.503-13.393l-6.44-11.483c0,0-3.284,7.156-6.208,12.187
	c-4.653,8.002-8.852,12.984-18.469,13.018c-21.191,0.074-24.954-18.882-25.155-27.435c-0.189-8.125,2.238-26.504,22.615-26.495
	c9.815,0.004,14.37,2.302,18.81,7.468c5.019,5.839,13.151,22.179,16.842,29.612c2.978,5.995,3.06,5.459,6.446,12.109
	c3.473,6.819,14.354,15.93,26.906,15.883c38.959-0.147,36.668-38.354,36.668-38.354s0.024-38.074-35.325-38.074
	C162.144,246.559,155.215,253.795,152.898,255.984z"/>
<path fill="#FFFFFF" d="M249.916,246.559h-33.742v76.169h13.203l0.163-24.964l19.724-0.119c0,0,33.092-0.117,33.092-25.79
	C282.355,246.559,249.916,246.559,249.916,246.559z M249.5,286.26h-20.167v-27.713h19.932c0,0,20.441,0.703,20.401,13.856
	C269.625,285.75,249.5,286.26,249.5,286.26z"/>
</svg>
